<svg width="34" height="35" viewBox="0 0 34 35" fill="none" xmlns="http://www.w3.org/2000/svg">
<path d="M34 17.1478C34 7.68169 26.3888 0.0078125 17 0.0078125C7.61122 0.0078125 0 7.68169 0 17.1478C0 25.7027 6.21669 32.7937 14.3438 34.0795V22.1023H10.0273V17.1478H14.3438V13.3716C14.3438 9.07592 16.8818 6.7031 20.765 6.7031C22.6249 6.7031 24.5703 7.03787 24.5703 7.03787V11.2559H22.4267C20.3149 11.2559 19.6562 12.5772 19.6562 13.9327V17.1478H24.3711L23.6174 22.1023H19.6562V34.0795C27.7833 32.7937 34 25.7029 34 17.1478Z" fill="#1877F2"/>
<path d="M23.6174 22.1023L24.3711 17.1478H19.6562V13.9327C19.6562 12.577 20.3149 11.2559 22.4267 11.2559H24.5703V7.03789C24.5703 7.03789 22.6249 6.70312 20.7648 6.70312C16.8818 6.70312 14.3438 9.07594 14.3438 13.3716V17.1478H10.0273V22.1023H14.3438V34.0795C15.2225 34.2183 16.1106 34.2879 17 34.2877C17.8894 34.2879 18.7775 34.2183 19.6562 34.0795V22.1023H23.6174Z" fill="white"/>
</svg>
