<svg width="60" height="50" viewBox="0 0 60 50" fill="none" xmlns="http://www.w3.org/2000/svg">
<path d="M13.6364 49.9999V24.2488L6.44695 16.9426L0 12.8882V45.4555C0 47.97 1.83398 49.9999 4.09102 49.9999H13.6364Z" fill="#4285F4"/>
<path d="M46.3635 50.0001H55.9089C58.1727 50.0001 59.9999 47.9626 59.9999 45.4557V12.8887L52.6977 17.5325L46.3635 24.249V50.0001Z" fill="#34A853"/>
<path d="M13.6365 24.2489L12.6582 14.1872L13.6365 4.55713L30.0001 18.19L46.3637 4.55713L47.458 13.6673L46.3637 24.2489L30.0001 37.8818L13.6365 24.2489Z" fill="#EA4335"/>
<path d="M46.3635 4.55707V24.2488L59.9999 12.8882V6.82913C59.9999 1.2095 54.2249 -1.99409 50.182 1.37612L46.3635 4.55707Z" fill="#FBBC04"/>
<path d="M0 12.8884L6.27164 18.1136L13.6364 24.2489V4.55719L9.81797 1.37624C5.76797 -1.99423 0 1.20962 0 6.82899V12.8884Z" fill="#C5221F"/>
</svg>
