<svg width="35" height="36" viewBox="0 0 35 36" fill="none" xmlns="http://www.w3.org/2000/svg">
<g clip-path="url(#clip0_15_24)">
<path d="M26.7969 0.79834H8.20312C3.67266 0.79834 0 4.471 0 9.00146V27.5952C0 32.1257 3.67266 35.7983 8.20312 35.7983H26.7969C31.3273 35.7983 35 32.1257 35 27.5952V9.00146C35 4.471 31.3273 0.79834 26.7969 0.79834Z" fill="url(#paint0_radial_15_24)"/>
<path d="M26.7969 0.79834H8.20312C3.67266 0.79834 0 4.471 0 9.00146V27.5952C0 32.1257 3.67266 35.7983 8.20312 35.7983H26.7969C31.3273 35.7983 35 32.1257 35 27.5952V9.00146C35 4.471 31.3273 0.79834 26.7969 0.79834Z" fill="url(#paint1_radial_15_24)"/>
<path d="M17.5012 4.62646C13.7882 4.62646 13.3221 4.64273 11.8639 4.70904C10.4084 4.77576 9.41486 5.00613 8.54561 5.34424C7.64627 5.69342 6.88352 6.16059 6.12363 6.92074C5.36307 7.68076 4.8959 8.44352 4.54563 9.34244C4.20656 10.212 3.97592 11.2059 3.91043 12.6607C3.84521 14.1191 3.82812 14.5853 3.82812 18.2985C3.82812 22.0116 3.84453 22.4762 3.9107 23.9344C3.9777 25.3899 4.20807 26.3835 4.5459 27.2527C4.89535 28.1521 5.36252 28.9148 6.12268 29.6747C6.88242 30.4353 7.64518 30.9035 8.54383 31.2527C9.41377 31.5908 10.4074 31.8212 11.8627 31.8879C13.3211 31.9542 13.7867 31.9705 17.4996 31.9705C21.213 31.9705 21.6776 31.9542 23.1358 31.8879C24.5913 31.8212 25.586 31.5908 26.4559 31.2527C27.3548 30.9035 28.1165 30.4353 28.8761 29.6747C29.6367 28.9148 30.1037 28.1521 30.4541 27.2531C30.7902 26.3835 31.0209 25.3897 31.0893 23.9347C31.1548 22.4765 31.1719 22.0116 31.1719 18.2985C31.1719 14.5853 31.1548 14.1194 31.0893 12.661C31.0209 11.2055 30.7902 10.2121 30.4541 9.34285C30.1037 8.44352 29.6367 7.68076 28.8761 6.92074C28.1157 6.16031 27.3551 5.69314 26.4551 5.34437C25.5835 5.00613 24.5894 4.77563 23.1339 4.70904C21.6755 4.64273 21.2112 4.62646 17.497 4.62646H17.5012ZM16.2747 7.09027C16.6388 7.08973 17.045 7.09027 17.5012 7.09027C21.1518 7.09027 21.5843 7.1034 23.0259 7.16889C24.3589 7.22986 25.0824 7.45258 25.5644 7.63975C26.2024 7.88748 26.6573 8.18375 27.1355 8.6624C27.614 9.14092 27.9102 9.5966 28.1586 10.2347C28.3458 10.7159 28.5688 11.4394 28.6295 12.7724C28.6949 14.2137 28.7092 14.6466 28.7092 18.2953C28.7092 21.9441 28.6949 22.3771 28.6295 23.8182C28.5685 25.1512 28.3458 25.8747 28.1586 26.3561C27.9109 26.9942 27.614 27.4485 27.1355 27.9268C26.657 28.4053 26.2027 28.7014 25.5644 28.9493C25.083 29.1373 24.3589 29.3594 23.0259 29.4204C21.5846 29.4859 21.1518 29.5001 17.5012 29.5001C13.8506 29.5001 13.4179 29.4859 11.9767 29.4204C10.6437 29.3589 9.92018 29.1362 9.43783 28.949C8.7999 28.7011 8.34408 28.405 7.86557 27.9265C7.38705 27.448 7.09092 26.9934 6.8425 26.355C6.65533 25.8737 6.43234 25.1501 6.37164 23.8171C6.30615 22.3758 6.29303 21.943 6.29303 18.2919C6.29303 14.6408 6.30615 14.2103 6.37164 12.769C6.43262 11.436 6.65533 10.7125 6.8425 10.2306C7.09037 9.5925 7.38705 9.13682 7.8657 8.6583C8.34436 8.17979 8.7999 7.88352 9.43797 7.63523C9.9199 7.44725 10.6437 7.22508 11.9767 7.16383C13.2379 7.10682 13.7267 7.08973 16.2747 7.08686V7.09027ZM24.7993 9.36035C23.8935 9.36035 23.1587 10.0945 23.1587 11.0004C23.1587 11.9062 23.8935 12.6411 24.7993 12.6411C25.705 12.6411 26.4399 11.9062 26.4399 11.0004C26.4399 10.0947 25.705 9.3598 24.7993 9.3598V9.36035ZM17.5012 11.2773C13.6239 11.2773 10.4802 14.421 10.4802 18.2985C10.4802 22.176 13.6239 25.3182 17.5012 25.3182C21.3787 25.3182 24.5213 22.176 24.5213 18.2985C24.5213 14.4211 21.3784 11.2773 17.501 11.2773H17.5012ZM17.5012 13.7411C20.0181 13.7411 22.0586 15.7813 22.0586 18.2985C22.0586 20.8153 20.0181 22.8559 17.5012 22.8559C14.9844 22.8559 12.944 20.8153 12.944 18.2985C12.944 15.7813 14.9842 13.7411 17.5012 13.7411Z" fill="white"/>
</g>
<defs>
<radialGradient id="paint0_radial_15_24" cx="0" cy="0" r="1" gradientUnits="userSpaceOnUse" gradientTransform="translate(9.29687 38.494) rotate(-90) scale(34.6876 32.2622)">
<stop stop-color="#FFDD55"/>
<stop offset="0.1" stop-color="#FFDD55"/>
<stop offset="0.5" stop-color="#FF543E"/>
<stop offset="1" stop-color="#C837AB"/>
</radialGradient>
<radialGradient id="paint1_radial_15_24" cx="0" cy="0" r="1" gradientUnits="userSpaceOnUse" gradientTransform="translate(-5.86264 3.31957) rotate(78.681) scale(15.5055 63.9144)">
<stop stop-color="#3771C8"/>
<stop offset="0.128" stop-color="#3771C8"/>
<stop offset="1" stop-color="#6600FF" stop-opacity="0"/>
</radialGradient>
<clipPath id="clip0_15_24">
<rect width="35" height="35" fill="white" transform="translate(0 0.79834)"/>
</clipPath>
</defs>
</svg>
