<svg width="37" height="38" viewBox="0 0 37 38" fill="none" xmlns="http://www.w3.org/2000/svg">
<path d="M28.3281 0H8.67188C3.88253 0 0 3.91449 0 8.74326V28.5613C0 33.3901 3.88253 37.3046 8.67188 37.3046H28.3281C33.1175 37.3046 37 33.3901 37 28.5613V8.74326C37 3.91449 33.1175 0 28.3281 0Z" fill="white"/>
<path d="M28.3281 0H8.67188C3.88253 0 0 3.91449 0 8.74326V28.5613C0 33.3901 3.88253 37.3046 8.67188 37.3046H28.3281C33.1175 37.3046 37 33.3901 37 28.5613V8.74326C37 3.91449 33.1175 0 28.3281 0Z" fill="#0A66C2"/>
<path d="M26.6971 31.7211H30.9275C31.0808 31.7211 31.2278 31.6597 31.3363 31.5504C31.4447 31.4412 31.5056 31.2929 31.5056 31.1384L31.5078 22.1267C31.5078 17.4166 30.5012 13.7961 25.0418 13.7961C22.9664 13.7183 21.0094 14.7969 19.9533 16.598C19.9481 16.6068 19.9402 16.6136 19.9309 16.6174C19.9215 16.6212 19.9112 16.6219 19.9014 16.6192C19.8917 16.6166 19.8831 16.6108 19.8769 16.6027C19.8707 16.5946 19.8673 16.5848 19.8673 16.5746V14.8138C19.8673 14.6592 19.8064 14.511 19.6979 14.4017C19.5895 14.2924 19.4425 14.2309 19.2891 14.2309H15.2745C15.1212 14.2309 14.9741 14.2924 14.8657 14.4017C14.7573 14.511 14.6964 14.6592 14.6964 14.8138V31.1375C14.6964 31.2921 14.7573 31.4404 14.8657 31.5497C14.9741 31.659 15.1212 31.7204 15.2745 31.7204H19.5046C19.658 31.7204 19.805 31.659 19.9134 31.5497C20.0219 31.4404 20.0828 31.2921 20.0828 31.1375V23.0685C20.0828 20.7869 20.512 18.5774 23.3175 18.5774C26.0831 18.5774 26.119 21.1881 26.119 23.2163V31.1382C26.119 31.2928 26.1799 31.4411 26.2883 31.5504C26.3967 31.6597 26.5438 31.7211 26.6971 31.7211ZM5.49219 8.68889C5.49219 10.4177 6.90382 11.8402 8.61869 11.8402C10.3331 11.8401 11.7439 10.4167 11.7439 8.68816C11.7436 6.95961 10.3327 5.53723 8.61811 5.53723C6.9031 5.53723 5.49219 6.96005 5.49219 8.68889ZM6.49798 31.7211H10.7338C10.8871 31.7211 11.0341 31.6597 11.1426 31.5504C11.251 31.4411 11.3119 31.2928 11.3119 31.1382V14.8138C11.3119 14.6592 11.251 14.511 11.1426 14.4017C11.0341 14.2924 10.8871 14.2309 10.7338 14.2309H6.49798C6.34465 14.2309 6.1976 14.2924 6.08918 14.4017C5.98076 14.511 5.91986 14.6592 5.91986 14.8138V31.1382C5.91986 31.2928 5.98076 31.4411 6.08918 31.5504C6.1976 31.6597 6.34465 31.7211 6.49798 31.7211Z" fill="white"/>
</svg>
