<svg width="38" height="39" viewBox="0 0 38 39" fill="none" xmlns="http://www.w3.org/2000/svg">
<path d="M0.810911 19.0751C0.81002 22.3193 1.65077 25.487 3.24944 28.279L0.65802 37.8186L10.3409 35.2588C13.0191 36.7288 16.0197 37.499 19.069 37.4992H19.077C29.1433 37.4992 37.3375 29.2406 37.3418 19.0896C37.3438 14.1708 35.4455 9.54538 31.9967 6.0655C28.5485 2.58591 23.9626 0.668627 19.0763 0.666382C9.00882 0.666382 0.815215 8.92459 0.811059 19.0751" fill="url(#paint0_linear_15_41)"/>
<path d="M0.158828 19.069C0.157789 22.4299 1.02867 25.7109 2.68434 28.6029L0 38.4845L10.0301 35.833C12.7937 37.3522 15.9052 38.1531 19.0714 38.1543H19.0796C29.507 38.1543 37.9955 29.5986 38 19.0843C38.0018 13.9887 36.0353 9.19702 32.4633 5.59247C28.8908 1.98838 24.1408 0.00209523 19.0796 0C8.65034 0 0.162984 8.55454 0.158828 19.069ZM6.1321 28.1049L5.75759 27.5055C4.18327 24.9816 3.35231 22.065 3.3535 19.0702C3.35677 10.3308 10.4111 3.22067 19.0855 3.22067C23.2863 3.22247 27.2341 4.87351 30.2035 7.8691C33.1727 10.865 34.8065 14.8474 34.8055 19.0831C34.8016 27.8224 27.7471 34.9335 19.0796 34.9335H19.0733C16.2511 34.932 13.4832 34.1679 11.0693 32.7238L10.4948 32.3803L4.54278 33.9537L6.1321 28.1049Z" fill="url(#paint1_linear_15_41)"/>
<path d="M14.3507 11.0969C13.9965 10.3032 13.6238 10.2872 13.287 10.2733C13.0112 10.2613 12.6959 10.2622 12.3809 10.2622C12.0656 10.2622 11.5533 10.3818 11.1204 10.8585C10.6869 11.3356 9.46558 12.4886 9.46558 14.8336C9.46558 17.1786 11.1597 19.445 11.3959 19.7634C11.6323 20.0811 14.6664 25.0474 19.4716 26.9579C23.4652 28.5457 24.2779 28.2299 25.1446 28.1503C26.0115 28.0709 27.9417 26.9976 28.3355 25.8846C28.7296 24.7717 28.7296 23.8178 28.6115 23.6184C28.4933 23.4198 28.1781 23.3006 27.7053 23.0623C27.2325 22.824 24.9081 21.6708 24.4748 21.5117C24.0414 21.3527 23.7263 21.2734 23.411 21.7507C23.0957 22.2272 22.1904 23.3006 21.9144 23.6184C21.6388 23.9371 21.3628 23.9767 20.8902 23.7383C20.4171 23.4992 18.8946 22.9964 17.0883 21.3728C15.6829 20.1094 14.7341 18.5492 14.4583 18.0719C14.1825 17.5954 14.4287 17.3371 14.6658 17.0996C14.8782 16.886 15.1387 16.543 15.3753 16.2648C15.611 15.9864 15.6897 15.7878 15.8474 15.4699C16.0051 15.1517 15.9262 14.8734 15.8082 14.635C15.6897 14.3966 14.771 12.0393 14.3507 11.0969Z" fill="white"/>
<defs>
<linearGradient id="paint0_linear_15_41" x1="1834.85" y1="3715.89" x2="1834.85" y2="0.666382" gradientUnits="userSpaceOnUse">
<stop stop-color="#1FAF38"/>
<stop offset="1" stop-color="#60D669"/>
</linearGradient>
<linearGradient id="paint1_linear_15_41" x1="1900" y1="3848.45" x2="1900" y2="0" gradientUnits="userSpaceOnUse">
<stop stop-color="#F9F9F9"/>
<stop offset="1" stop-color="white"/>
</linearGradient>
</defs>
</svg>
